<svg width="149" height="40" viewBox="0 0 149 40" fill="none" xmlns="http://www.w3.org/2000/svg">
<path d="M22.2368 8.52679C6.04292 8.52679 0 19.5395 0 19.5395C0 19.5395 6.04292 30.5523 22.2368 30.5523C38.4307 30.5523 43.6356 19.5395 43.6356 19.5395C43.6356 19.5395 38.4307 8.52679 22.2368 8.52679Z" fill="url(#paint0_linear_301_286)"/>
<path d="M22.2368 8.01096C6.04292 8.01096 0 19.5395 0 19.5395C0 19.5395 6.04292 31.0681 22.2368 31.0681C38.4307 31.0681 43.6356 19.5395 43.6356 19.5395C43.6356 19.5395 38.4307 8.01096 22.2368 8.01096ZM22.1995 29.5745C7.4423 29.5745 1.93489 19.5395 1.93489 19.5395C1.93489 19.5395 7.4423 9.5046 22.1995 9.5046C36.9567 9.5046 41.6997 19.5395 41.6997 19.5395C41.6997 19.5395 36.9567 29.5745 22.1995 29.5745Z" fill="url(#paint1_radial_301_286)"/>
<path d="M24.1413 29.4798C29.6301 28.1955 33.0385 22.7047 31.7542 17.2159C30.4698 11.727 24.979 8.31864 19.4902 9.603C14.0013 10.8874 10.5929 16.3781 11.8773 21.867C13.1617 27.3558 18.6524 30.7642 24.1413 29.4798Z" fill="url(#paint2_radial_301_286)"/>
<path d="M21.8175 24.4068C24.5056 24.4068 26.6847 22.2277 26.6847 19.5395C26.6847 16.8514 24.5056 14.6723 21.8175 14.6723C19.1293 14.6723 16.9502 16.8514 16.9502 19.5395C16.9502 22.2277 19.1293 24.4068 21.8175 24.4068Z" fill="url(#paint3_radial_301_286)"/>
<path d="M22.4906 13.3568C22.4906 13.7286 22.1892 14.0301 21.8173 14.0301C21.4455 14.0301 21.144 13.7286 21.144 13.3568C21.144 12.9849 21.4455 12.6835 21.8173 12.6835C22.1892 12.6835 22.4906 12.9849 22.4906 13.3568Z" fill="#CCFFFF"/>
<path d="M22.4906 25.8694C22.4906 26.2412 22.1892 26.5427 21.8173 26.5427C21.4455 26.5427 21.144 26.2412 21.144 25.8694C21.144 25.4975 21.4455 25.1961 21.8173 25.1961C22.1892 25.1961 22.4906 25.4975 22.4906 25.8694Z" fill="#CCFFFF"/>
<path d="M20.0448 13.5753C20.1867 13.9192 20.0241 14.3128 19.6802 14.4547C19.3363 14.5967 18.9427 14.434 18.8008 14.0901C18.6589 13.7463 18.8215 13.3526 19.1654 13.2107C19.5093 13.0688 19.9029 13.2315 20.0448 13.5753Z" fill="#CCFFFF"/>
<path d="M24.8334 25.135C24.9753 25.4789 24.8127 25.8725 24.4688 26.0144C24.1249 26.1563 23.7313 25.9937 23.5894 25.6498C23.4475 25.3059 23.6101 24.9123 23.954 24.7704C24.2979 24.6285 24.6915 24.7911 24.8334 25.135Z" fill="#CCFFFF"/>
<path d="M17.8699 14.7127C18.133 14.9758 18.133 15.4015 17.8699 15.6646C17.6068 15.9277 17.1811 15.9277 16.918 15.6646C16.6549 15.4015 16.6549 14.9758 16.918 14.7127C17.1811 14.4496 17.6068 14.4496 17.8699 14.7127Z" fill="#CCFFFF"/>
<path d="M26.7181 23.5606C26.9812 23.8237 26.9812 24.2494 26.7181 24.5125C26.455 24.7756 26.0293 24.7756 25.7662 24.5125C25.5031 24.2494 25.5031 23.8237 25.7662 23.5606C26.0293 23.2975 26.455 23.2975 26.7181 23.5606Z" fill="#CCFFFF"/>
<path d="M16.2954 16.5968C16.6393 16.7387 16.8019 17.1334 16.66 17.4762C16.5181 17.8201 16.1235 17.9827 15.7806 17.8408C15.4367 17.6989 15.2741 17.3043 15.416 16.9614C15.5579 16.6175 15.9515 16.4549 16.2954 16.5968Z" fill="#CCFFFF"/>
<path d="M27.855 21.3854C28.1989 21.5273 28.3615 21.9219 28.2196 22.2648C28.0777 22.6087 27.6841 22.7713 27.3402 22.6294C26.9963 22.4875 26.8337 22.0928 26.9756 21.75C27.1175 21.4061 27.5121 21.2435 27.855 21.3854Z" fill="#CCFFFF"/>
<path d="M15.561 18.9398C15.9328 18.9398 16.2342 19.2412 16.2342 19.6131C16.2342 19.9849 15.9328 20.2864 15.561 20.2864C15.1891 20.2864 14.8877 19.9849 14.8877 19.6131C14.8877 19.2412 15.1891 18.9398 15.561 18.9398Z" fill="#CCFFFF"/>
<path d="M28.0737 18.9398C28.4455 18.9398 28.7469 19.2412 28.7469 19.6131C28.7469 19.9849 28.4455 20.2864 28.0737 20.2864C27.7018 20.2864 27.4004 19.9849 27.4004 19.6131C27.4004 19.2412 27.7018 18.9398 28.0737 18.9398Z" fill="#CCFFFF"/>
<path d="M15.7796 21.3854C16.1235 21.2435 16.5171 21.4061 16.6591 21.75C16.801 22.0939 16.6383 22.4875 16.2944 22.6294C15.9506 22.7713 15.557 22.6087 15.415 22.2648C15.2731 21.9209 15.4358 21.5273 15.7796 21.3854Z" fill="#CCFFFF"/>
<path d="M27.3402 16.5968C27.6841 16.4549 28.0777 16.6175 28.2196 16.9614C28.3615 17.3053 28.1989 17.6989 27.855 17.8408C27.5111 17.9827 27.1175 17.8201 26.9756 17.4762C26.8337 17.1323 26.9963 16.7387 27.3402 16.5968Z" fill="#CCFFFF"/>
<path d="M16.918 23.5606C17.1811 23.2975 17.6068 23.2975 17.8699 23.5606C18.133 23.8237 18.133 24.2494 17.8699 24.5125C17.6068 24.7756 17.1811 24.7756 16.918 24.5125C16.6549 24.2494 16.6549 23.8237 16.918 23.5606Z" fill="#CCFFFF"/>
<path d="M25.7662 14.7127C26.0293 14.4496 26.455 14.4496 26.7181 14.7127C26.9812 14.9758 26.9812 15.4015 26.7181 15.6646C26.455 15.9277 26.0293 15.9277 25.7662 15.6646C25.5031 15.4015 25.5031 14.9758 25.7662 14.7127Z" fill="#CCFFFF"/>
<path d="M18.8008 25.135C18.9427 24.7911 19.3373 24.6285 19.6802 24.7704C20.0241 24.9123 20.1867 25.3059 20.0448 25.6498C19.9029 25.9937 19.5082 26.1563 19.1654 26.0144C18.8215 25.8725 18.6589 25.4778 18.8008 25.135Z" fill="#CCFFFF"/>
<path d="M23.5894 13.5753C23.7313 13.2315 24.1259 13.0688 24.4688 13.2107C24.8127 13.3526 24.9753 13.7473 24.8334 14.0901C24.6915 14.434 24.2968 14.5967 23.954 14.4547C23.6101 14.3128 23.4475 13.9182 23.5894 13.5753Z" fill="#CCFFFF"/>
<path d="M21.8171 4.18675C13.3379 4.18675 6.46533 11.0604 6.46533 19.5395C6.46533 28.0187 13.339 34.8913 21.8171 34.8913C30.2952 34.8913 37.1688 28.0176 37.1688 19.5395C37.1688 11.0614 30.2952 4.18675 21.8171 4.18675ZM21.8171 33.5468C14.0806 33.5468 7.80981 27.276 7.80981 19.5395C7.80981 11.8031 14.0816 5.53226 21.8171 5.53226C29.5525 5.53226 35.8244 11.8031 35.8244 19.5395C35.8244 27.276 29.5525 33.5468 21.8171 33.5468Z" fill="#001EFF" style="mix-blend-mode:screen"/>
<path d="M21.8174 1.27197C11.7286 1.27197 3.5498 9.45074 3.5498 19.5395C3.5498 29.6283 11.7286 37.8061 21.8174 37.8061C31.9062 37.8061 40.0849 29.6273 40.0849 19.5395C40.0849 9.45177 31.9062 1.27197 21.8174 1.27197ZM21.8174 36.2057C12.6121 36.2057 5.15013 28.7438 5.15013 19.5385C5.15013 10.3333 12.6131 2.8723 21.8174 2.8723C31.0216 2.8723 38.4846 10.3343 38.4846 19.5395C38.4846 28.7448 31.0226 36.2068 21.8174 36.2068V36.2057Z" fill="#001EFF" style="mix-blend-mode:screen"/>
<path d="M21.8176 7.00519C14.8952 7.00519 9.2832 12.6172 9.2832 19.5395C9.2832 26.4619 14.8952 32.0728 21.8176 32.0728C28.7399 32.0728 34.3519 26.4608 34.3519 19.5395C34.3519 12.6182 28.7399 7.00519 21.8176 7.00519ZM21.8176 30.4166C15.8098 30.4166 10.9395 25.5462 10.9395 19.5385C10.9395 13.5308 15.8098 8.66042 21.8176 8.66042C27.8253 8.66042 32.6956 13.5308 32.6956 19.5385C32.6956 25.5462 27.8253 30.4166 21.8176 30.4166Z" fill="#001EFF" style="mix-blend-mode:screen"/>
<mask id="mask0_301_286" style="mask-type:luminance" maskUnits="userSpaceOnUse" x="21" y="1" width="2" height="2">
<path d="M22.559 2.15656C22.559 2.5657 22.2275 2.89716 21.8173 2.89716C21.4071 2.89716 21.0757 2.5657 21.0757 2.15656C21.0757 1.74741 21.4082 1.41595 21.8173 1.41595C22.2265 1.41595 22.559 1.74741 22.559 2.15656Z" fill="url(#paint4_radial_301_286)"/>
</mask>
<g mask="url(#mask0_301_286)">
<path d="M22.559 2.15656C22.559 2.5657 22.2275 2.89716 21.8173 2.89716C21.4071 2.89716 21.0757 2.5657 21.0757 2.15656C21.0757 1.74741 21.4082 1.41595 21.8173 1.41595C22.2265 1.41595 22.559 1.74741 22.559 2.15656Z" fill="white"/>
</g>
<mask id="mask1_301_286" style="mask-type:luminance" maskUnits="userSpaceOnUse" x="21" y="36" width="2" height="2">
<path d="M22.559 37.0934C22.559 37.5026 22.2275 37.834 21.8173 37.834C21.4071 37.834 21.0757 37.5026 21.0757 37.0934C21.0757 36.6843 21.4082 36.3528 21.8173 36.3528C22.2265 36.3528 22.559 36.6843 22.559 37.0934Z" fill="url(#paint5_radial_301_286)"/>
</mask>
<g mask="url(#mask1_301_286)">
<path d="M22.559 37.0934C22.559 37.5026 22.2275 37.834 21.8173 37.834C21.4071 37.834 21.0757 37.5026 21.0757 37.0934C21.0757 36.6843 21.4082 36.3528 21.8173 36.3528C22.2265 36.3528 22.559 36.6843 22.559 37.0934Z" fill="white"/>
</g>
<mask id="mask2_301_286" style="mask-type:luminance" maskUnits="userSpaceOnUse" x="14" y="2" width="2" height="3">
<path d="M15.8179 3.20273C15.9743 3.5808 15.7951 4.01377 15.416 4.17121C15.0379 4.32762 14.6039 4.14843 14.4475 3.77036C14.2911 3.39229 14.4713 2.95932 14.8494 2.80187C15.2275 2.64547 15.6615 2.82466 15.8179 3.20273Z" fill="url(#paint6_radial_301_286)"/>
</mask>
<g mask="url(#mask2_301_286)">
<path d="M15.8179 3.20273C15.9743 3.5808 15.7951 4.01377 15.416 4.17121C15.0379 4.32762 14.6039 4.14843 14.4475 3.77036C14.2911 3.39229 14.4713 2.95932 14.8494 2.80187C15.2275 2.64547 15.6615 2.82466 15.8179 3.20273Z" fill="white"/>
</g>
<mask id="mask3_301_286" style="mask-type:luminance" maskUnits="userSpaceOnUse" x="27" y="35" width="3" height="2">
<path d="M29.1872 35.4807C29.3436 35.8587 29.1644 36.2917 28.7853 36.4491C28.4072 36.6056 27.9732 36.4264 27.8168 36.0483C27.6604 35.6702 27.8396 35.2372 28.2187 35.0798C28.5967 34.9234 29.0307 35.1026 29.1872 35.4807Z" fill="url(#paint7_radial_301_286)"/>
</mask>
<g mask="url(#mask3_301_286)">
<path d="M29.1872 35.4807C29.3436 35.8587 29.1644 36.2917 28.7853 36.4491C28.4072 36.6056 27.9732 36.4264 27.8168 36.0483C27.6604 35.6702 27.8396 35.2372 28.2187 35.0798C28.5967 34.9234 29.0307 35.1026 29.1872 35.4807Z" fill="white"/>
</g>
<mask id="mask4_301_286" style="mask-type:luminance" maskUnits="userSpaceOnUse" x="8" y="6" width="3" height="3">
<path d="M9.98959 6.74935C10.2786 7.03834 10.2786 7.50756 9.98959 7.79759C9.7006 8.08762 9.23034 8.08762 8.94135 7.79759C8.65236 7.5086 8.65236 7.03938 8.94135 6.74935C9.23138 6.45932 9.7006 6.45932 9.98959 6.74935Z" fill="url(#paint8_radial_301_286)"/>
</mask>
<g mask="url(#mask4_301_286)">
<path d="M9.98959 6.74935C10.2786 7.03834 10.2786 7.50756 9.98959 7.79759C9.7006 8.08762 9.23034 8.08762 8.94135 7.79759C8.65236 7.5086 8.65236 7.03938 8.94135 6.74935C9.23138 6.45932 9.7006 6.45932 9.98959 6.74935Z" fill="white"/>
</g>
<mask id="mask5_301_286" style="mask-type:luminance" maskUnits="userSpaceOnUse" x="33" y="31" width="2" height="2">
<path d="M34.6937 31.4534C34.9827 31.7424 34.9827 32.2116 34.6937 32.5017C34.4037 32.7917 33.9344 32.7917 33.6455 32.5017C33.3565 32.2127 33.3565 31.7435 33.6455 31.4534C33.9355 31.1634 34.4047 31.1634 34.6937 31.4534Z" fill="url(#paint9_radial_301_286)"/>
</mask>
<g mask="url(#mask5_301_286)">
<path d="M34.6937 31.4534C34.9827 31.7424 34.9827 32.2116 34.6937 32.5017C34.4037 32.7917 33.9344 32.7917 33.6455 32.5017C33.3565 32.2127 33.3565 31.7435 33.6455 31.4534C33.9355 31.1634 34.4047 31.1634 34.6937 31.4534Z" fill="white"/>
</g>
<mask id="mask6_301_286" style="mask-type:luminance" maskUnits="userSpaceOnUse" x="4" y="12" width="3" height="2">
<path d="M5.96203 12.2557C6.3401 12.4121 6.5193 12.8461 6.36289 13.2242C6.20648 13.6023 5.77248 13.7825 5.39441 13.6261C5.01634 13.4697 4.83714 13.0357 4.99355 12.6576C5.14996 12.2795 5.58396 12.0993 5.96203 12.2557Z" fill="url(#paint10_radial_301_286)"/>
</mask>
<g mask="url(#mask6_301_286)">
<path d="M5.96203 12.2557C6.3401 12.4121 6.5193 12.8461 6.36289 13.2242C6.20648 13.6023 5.77248 13.7825 5.39441 13.6261C5.01634 13.4697 4.83714 13.0357 4.99355 12.6576C5.14996 12.2795 5.58396 12.0993 5.96203 12.2557Z" fill="white"/>
</g>
<mask id="mask7_301_286" style="mask-type:luminance" maskUnits="userSpaceOnUse" x="37" y="25" width="2" height="3">
<path d="M38.2399 25.6249C38.6179 25.7813 38.7971 26.2153 38.6407 26.5934C38.4843 26.9715 38.0503 27.1517 37.6722 26.9953C37.2942 26.8389 37.115 26.4049 37.2714 26.0268C37.4278 25.6487 37.8618 25.4685 38.2399 25.6249Z" fill="url(#paint11_radial_301_286)"/>
</mask>
<g mask="url(#mask7_301_286)">
<path d="M38.2399 25.6249C38.6179 25.7813 38.7971 26.2153 38.6407 26.5934C38.4843 26.9715 38.0503 27.1517 37.6722 26.9953C37.2942 26.8389 37.115 26.4049 37.2714 26.0268C37.4278 25.6487 37.8618 25.4685 38.2399 25.6249Z" fill="white"/>
</g>
<mask id="mask8_301_286" style="mask-type:luminance" maskUnits="userSpaceOnUse" x="3" y="18" width="3" height="3">
<path d="M4.34949 18.8839C4.75864 18.8839 5.0901 19.2164 5.0901 19.6255C5.0901 20.0347 4.75864 20.3672 4.34949 20.3672C3.94035 20.3672 3.60889 20.0347 3.60889 19.6255C3.60889 19.2164 3.94035 18.8839 4.34949 18.8839Z" fill="url(#paint12_radial_301_286)"/>
</mask>
<g mask="url(#mask8_301_286)">
<path d="M4.34949 18.8839C4.75864 18.8839 5.0901 19.2164 5.0901 19.6255C5.0901 20.0347 4.75864 20.3672 4.34949 20.3672C3.94035 20.3672 3.60889 20.0347 3.60889 19.6255C3.60889 19.2164 3.94035 18.8839 4.34949 18.8839Z" fill="white"/>
</g>
<mask id="mask9_301_286" style="mask-type:luminance" maskUnits="userSpaceOnUse" x="38" y="18" width="3" height="3">
<path d="M39.286 18.8839C39.6952 18.8839 40.0266 19.2164 40.0266 19.6255C40.0266 20.0347 39.6952 20.3672 39.286 20.3672C38.8769 20.3672 38.5454 20.0347 38.5454 19.6255C38.5454 19.2164 38.8769 18.8839 39.286 18.8839Z" fill="url(#paint13_radial_301_286)"/>
</mask>
<g mask="url(#mask9_301_286)">
<path d="M39.286 18.8839C39.6952 18.8839 40.0266 19.2164 40.0266 19.6255C40.0266 20.0347 39.6952 20.3672 39.286 20.3672C38.8769 20.3672 38.5454 20.0347 38.5454 19.6255C38.5454 19.2164 38.8769 18.8839 39.286 18.8839Z" fill="white"/>
</g>
<mask id="mask10_301_286" style="mask-type:luminance" maskUnits="userSpaceOnUse" x="4" y="25" width="3" height="3">
<path d="M5.39441 25.6249C5.77248 25.4685 6.20545 25.6477 6.36289 26.0268C6.5193 26.4049 6.3401 26.8389 5.96203 26.9953C5.58396 27.1517 5.15099 26.9725 4.99355 26.5934C4.83714 26.2153 5.01634 25.7813 5.39441 25.6249Z" fill="url(#paint14_radial_301_286)"/>
</mask>
<g mask="url(#mask10_301_286)">
<path d="M5.39441 25.6249C5.77248 25.4685 6.20545 25.6477 6.36289 26.0268C6.5193 26.4049 6.3401 26.8389 5.96203 26.9953C5.58396 27.1517 5.15099 26.9725 4.99355 26.5934C4.83714 26.2153 5.01634 25.7813 5.39441 25.6249Z" fill="white"/>
</g>
<mask id="mask11_301_286" style="mask-type:luminance" maskUnits="userSpaceOnUse" x="37" y="12" width="2" height="2">
<path d="M37.6722 12.2557C38.0503 12.0993 38.4833 12.2785 38.6407 12.6576C38.7971 13.0357 38.6179 13.4697 38.2399 13.6261C37.8618 13.7825 37.4288 13.6023 37.2714 13.2242C37.115 12.8461 37.2942 12.4121 37.6722 12.2557Z" fill="url(#paint15_radial_301_286)"/>
</mask>
<g mask="url(#mask11_301_286)">
<path d="M37.6722 12.2557C38.0503 12.0993 38.4833 12.2785 38.6407 12.6576C38.7971 13.0357 38.6179 13.4697 38.2399 13.6261C37.8618 13.7825 37.4288 13.6023 37.2714 13.2242C37.115 12.8461 37.2942 12.4121 37.6722 12.2557Z" fill="white"/>
</g>
<mask id="mask12_301_286" style="mask-type:luminance" maskUnits="userSpaceOnUse" x="8" y="31" width="3" height="2">
<path d="M8.94115 31.4534C9.23014 31.1644 9.69937 31.1644 9.98939 31.4534C10.2794 31.7435 10.2794 32.2127 9.98939 32.5017C9.7004 32.7907 9.23118 32.7907 8.94115 32.5017C8.65113 32.2117 8.65113 31.7424 8.94115 31.4534Z" fill="url(#paint16_radial_301_286)"/>
</mask>
<g mask="url(#mask12_301_286)">
<path d="M8.94115 31.4534C9.23014 31.1644 9.69937 31.1644 9.98939 31.4534C10.2794 31.7435 10.2794 32.2127 9.98939 32.5017C9.7004 32.7907 9.23118 32.7907 8.94115 32.5017C8.65113 32.2117 8.65113 31.7424 8.94115 31.4534Z" fill="white"/>
</g>
<mask id="mask13_301_286" style="mask-type:luminance" maskUnits="userSpaceOnUse" x="33" y="6" width="2" height="3">
<path d="M33.6453 6.74934C33.9342 6.46035 34.4035 6.46035 34.6935 6.74934C34.9835 7.03937 34.9835 7.50859 34.6935 7.79758C34.4045 8.08657 33.9353 8.08657 33.6453 7.79758C33.3552 7.50756 33.3552 7.03833 33.6453 6.74934Z" fill="url(#paint17_radial_301_286)"/>
</mask>
<g mask="url(#mask13_301_286)">
<path d="M33.6453 6.74934C33.9342 6.46035 34.4035 6.46035 34.6935 6.74934C34.9835 7.03937 34.9835 7.50859 34.6935 7.79758C34.4045 8.08657 33.9353 8.08657 33.6453 7.79758C33.3552 7.50756 33.3552 7.03833 33.6453 6.74934Z" fill="white"/>
</g>
<mask id="mask14_301_286" style="mask-type:luminance" maskUnits="userSpaceOnUse" x="14" y="35" width="2" height="2">
<path d="M14.4475 35.4807C14.6039 35.1026 15.0379 34.9234 15.416 35.0798C15.794 35.2362 15.9743 35.6702 15.8179 36.0483C15.6615 36.4264 15.2275 36.6056 14.8494 36.4491C14.4713 36.2927 14.2911 35.8587 14.4475 35.4807Z" fill="url(#paint18_radial_301_286)"/>
</mask>
<g mask="url(#mask14_301_286)">
<path d="M14.4475 35.4807C14.6039 35.1026 15.0379 34.9234 15.416 35.0798C15.794 35.2362 15.9743 35.6702 15.8179 36.0483C15.6615 36.4264 15.2275 36.6056 14.8494 36.4491C14.4713 36.2927 14.2911 35.8587 14.4475 35.4807Z" fill="white"/>
</g>
<mask id="mask15_301_286" style="mask-type:luminance" maskUnits="userSpaceOnUse" x="27" y="2" width="3" height="3">
<path d="M27.8176 3.20273C27.974 2.82466 28.408 2.64547 28.7861 2.80187C29.1642 2.95828 29.3444 3.39229 29.188 3.77036C29.0316 4.14843 28.5976 4.32762 28.2195 4.17121C27.8414 4.01481 27.6612 3.5808 27.8176 3.20273Z" fill="url(#paint19_radial_301_286)"/>
</mask>
<g mask="url(#mask15_301_286)">
<path d="M27.8176 3.20273C27.974 2.82466 28.408 2.64547 28.7861 2.80187C29.1642 2.95828 29.3444 3.39229 29.188 3.77036C29.0316 4.14843 28.5976 4.32762 28.2195 4.17121C27.8414 4.01481 27.6612 3.5808 27.8176 3.20273Z" fill="white"/>
</g>
<path d="M35.2798 0V1.76295H39.5266V5.68142H41.2896V0H35.2798Z" fill="#00BFFF"/>
<path d="M2.21045 0V5.68142H3.9734V1.76295H8.22022V0H2.21045Z" fill="#00BFFF"/>
<path d="M39.5266 37.3151H35.2798V39.078H41.2896V33.3976H39.5266V37.3151Z" fill="#00BFFF"/>
<path d="M3.9734 37.3151V33.3976H2.21045V39.078H8.22022V37.3151H3.9734Z" fill="#00BFFF"/>
<mask id="mask16_301_286" style="mask-type:luminance" maskUnits="userSpaceOnUse" x="17" y="15" width="9" height="9">
<path d="M21.817 23.6144C24.02 23.6144 25.8059 21.8285 25.8059 19.6255C25.8059 17.4225 24.02 15.6366 21.817 15.6366C19.614 15.6366 17.8281 17.4225 17.8281 19.6255C17.8281 21.8285 19.614 23.6144 21.817 23.6144Z" fill="url(#paint20_radial_301_286)"/>
</mask>
<g mask="url(#mask16_301_286)">
<path d="M21.817 23.6144C24.02 23.6144 25.8059 21.8285 25.8059 19.6255C25.8059 17.4225 24.02 15.6366 21.817 15.6366C19.614 15.6366 17.8281 17.4225 17.8281 19.6255C17.8281 21.8285 19.614 23.6144 21.817 23.6144Z" fill="url(#paint21_radial_301_286)" style="mix-blend-mode:screen"/>
</g>
<mask id="mask17_301_286" style="mask-type:luminance" maskUnits="userSpaceOnUse" x="17" y="15" width="9" height="9">
<path d="M21.817 23.6144C24.02 23.6144 25.8059 21.8285 25.8059 19.6255C25.8059 17.4225 24.02 15.6366 21.817 15.6366C19.614 15.6366 17.8281 17.4225 17.8281 19.6255C17.8281 21.8285 19.614 23.6144 21.817 23.6144Z" fill="url(#paint22_radial_301_286)"/>
</mask>
<g mask="url(#mask17_301_286)">
<path d="M21.817 23.6144C24.02 23.6144 25.8059 21.8285 25.8059 19.6255C25.8059 17.4225 24.02 15.6366 21.817 15.6366C19.614 15.6366 17.8281 17.4225 17.8281 19.6255C17.8281 21.8285 19.614 23.6144 21.817 23.6144Z" fill="url(#paint23_radial_301_286)" style="mix-blend-mode:screen"/>
</g>
<path d="M28.0696 11.9035H25.7598V14.2134H28.0696V11.9035Z" fill="#8900FF"/>
<path d="M16.3216 13.5163H14.0117V15.8262H16.3216V13.5163Z" fill="#FFFFFD"/>
<path d="M26.1419 17.8916H23.832V20.2014H26.1419V17.8916Z" fill="#E20000"/>
<path d="M31.0584 20.9301H28.7485V23.2399H31.0584V20.9301Z" fill="#39FF14"/>
<path d="M14.8318 20.6354H12.522V22.9453H14.8318V20.6354Z" fill="#FEFF5A"/>
<path d="M31.9317 22.7713H31.6468V22.4864H31.449V22.7713H31.1631V22.9691H31.449V23.254H31.6468V22.9691H31.9317V22.7713Z" fill="#D9D9D6"/>
<path d="M39.4252 22.2658H39.2035V22.0441H39.0502V22.2658H38.8296V22.4191H39.0502V22.6397H39.2035V22.4191H39.4252V22.2658Z" fill="#D9D9D6"/>
<path d="M54.7444 2.99154V17.0562H52.6223V2.99154H54.7444ZM59.3366 10.793V17.0562H57.2832V6.50771H59.2542V8.22459H59.3846C59.6273 7.66603 60.0073 7.21736 60.5247 6.87856C61.0466 6.53976 61.7036 6.37036 62.4956 6.37036C63.2144 6.37036 63.844 6.52145 64.3842 6.82362C64.9244 7.12121 65.3434 7.56531 65.641 8.15592C65.9385 8.74652 66.0873 9.47677 66.0873 10.3467V17.0562H64.034V10.5939C64.034 9.8293 63.8348 9.23183 63.4365 8.80146C63.0382 8.36652 62.4911 8.14905 61.7951 8.14905C61.319 8.14905 60.8955 8.25206 60.5247 8.45809C60.1584 8.66411 59.8677 8.96628 59.6525 9.3646C59.4419 9.75834 59.3366 10.2345 59.3366 10.793ZM77.1006 6.50771L73.2754 17.0562H71.0778L67.2458 6.50771H69.4502L72.1217 14.6251H72.2316L74.8962 6.50771H77.1006ZM78.6436 17.0562V6.50771H80.697V17.0562H78.6436ZM79.6806 4.88011C79.3235 4.88011 79.0168 4.76107 78.7604 4.523C78.5086 4.28035 78.3827 3.99191 78.3827 3.65769C78.3827 3.31889 78.5086 3.03046 78.7604 2.79238C79.0168 2.54973 79.3235 2.42841 79.6806 2.42841C80.0377 2.42841 80.3422 2.54973 80.594 2.79238C80.8504 3.03046 80.9786 3.31889 80.9786 3.65769C80.9786 3.99191 80.8504 4.28035 80.594 4.523C80.3422 4.76107 80.0377 4.88011 79.6806 4.88011ZM85.1261 10.793V17.0562H83.0727V6.50771H85.0437V8.22459H85.1742C85.4168 7.66603 85.7968 7.21736 86.3142 6.87856C86.8361 6.53976 87.4931 6.37036 88.2851 6.37036C89.0039 6.37036 89.6335 6.52145 90.1737 6.82362C90.714 7.12121 91.1329 7.56531 91.4305 8.15592C91.7281 8.74652 91.8769 9.47677 91.8769 10.3467V17.0562H89.8235V10.5939C89.8235 9.8293 89.6243 9.23183 89.226 8.80146C88.8277 8.36652 88.2806 8.14905 87.5847 8.14905C87.1085 8.14905 86.685 8.25206 86.3142 8.45809C85.9479 8.66411 85.6572 8.96628 85.442 9.3646C85.2314 9.75834 85.1261 10.2345 85.1261 10.793ZM98.6872 17.2691C97.6663 17.2691 96.7872 17.0379 96.0501 16.5755C95.3176 16.1085 94.7544 15.4652 94.3607 14.6457C93.967 13.8262 93.7701 12.8876 93.7701 11.83C93.7701 10.7587 93.9715 9.81328 94.3744 8.99375C94.7773 8.16965 95.345 7.52639 96.0776 7.06398C96.8101 6.60157 97.6731 6.37036 98.6666 6.37036C99.4678 6.37036 100.182 6.51916 100.809 6.81675C101.437 7.10976 101.942 7.52181 102.327 8.0529C102.716 8.58399 102.947 9.20436 103.021 9.914H101.022C100.912 9.41954 100.661 8.99375 100.267 8.63664C99.8776 8.27953 99.3557 8.10098 98.701 8.10098C98.1287 8.10098 97.6274 8.25206 97.197 8.55423C96.7712 8.85182 96.4393 9.27761 96.2012 9.83159C95.9631 10.381 95.8441 11.0311 95.8441 11.782C95.8441 12.5511 95.9608 13.215 96.1943 13.7735C96.4278 14.3321 96.7575 14.7648 97.1833 15.0715C97.6136 15.3783 98.1195 15.5316 98.701 15.5316C99.0901 15.5316 99.4427 15.4607 99.7586 15.3187C100.079 15.1722 100.347 14.9639 100.562 14.6938C100.782 14.4237 100.935 14.0986 101.022 13.7186H103.021C102.947 14.4008 102.725 15.0097 102.354 15.5454C101.984 16.081 101.487 16.5022 100.864 16.809C100.246 17.1157 99.5205 17.2691 98.6872 17.2691ZM104.83 17.0562V6.50771H106.883V17.0562H104.83ZM105.867 4.88011C105.51 4.88011 105.203 4.76107 104.946 4.523C104.695 4.28035 104.569 3.99191 104.569 3.65769C104.569 3.31889 104.695 3.03046 104.946 2.79238C105.203 2.54973 105.51 2.42841 105.867 2.42841C106.224 2.42841 106.528 2.54973 106.78 2.79238C107.037 3.03046 107.165 3.31889 107.165 3.65769C107.165 3.99191 107.037 4.28035 106.78 4.523C106.528 4.76107 106.224 4.88011 105.867 4.88011ZM109.424 17.0562V2.99154H111.477V8.21772H111.601C111.72 7.99796 111.891 7.74386 112.116 7.45543C112.34 7.16699 112.651 6.91518 113.05 6.7C113.448 6.48024 113.975 6.37036 114.629 6.37036C115.481 6.37036 116.241 6.58554 116.909 7.01591C117.578 7.44627 118.102 8.06664 118.482 8.87701C118.866 9.68737 119.059 10.6626 119.059 11.8026C119.059 12.9426 118.869 13.9201 118.489 14.735C118.109 15.5454 117.587 16.1703 116.923 16.6098C116.259 17.0448 115.501 17.2622 114.65 17.2622C114.009 17.2622 113.485 17.1547 113.077 16.9395C112.674 16.7243 112.358 16.4725 112.129 16.184C111.901 15.8956 111.724 15.6392 111.601 15.4149H111.429V17.0562H109.424ZM111.436 11.782C111.436 12.5237 111.543 13.1738 111.759 13.7323C111.974 14.2909 112.285 14.7281 112.693 15.044C113.1 15.3554 113.599 15.511 114.19 15.511C114.803 15.511 115.316 15.3485 115.728 15.0234C116.14 14.6938 116.451 14.2474 116.662 13.6843C116.877 13.1211 116.985 12.487 116.985 11.782C116.985 11.0861 116.879 10.4611 116.669 9.90713C116.463 9.35315 116.152 8.91592 115.735 8.59544C115.323 8.27495 114.808 8.11471 114.19 8.11471C113.595 8.11471 113.091 8.26809 112.679 8.57483C112.271 8.88158 111.962 9.30966 111.752 9.85906C111.541 10.4085 111.436 11.0494 111.436 11.782ZM123.031 2.99154V17.0562H120.978V2.99154H123.031ZM129.953 17.2691C128.914 17.2691 128.019 17.0471 127.268 16.603C126.522 16.1543 125.945 15.5248 125.537 14.7144C125.134 13.8994 124.933 12.9449 124.933 11.8506C124.933 10.7702 125.134 9.81785 125.537 8.99375C125.945 8.16965 126.512 7.52639 127.24 7.06398C127.973 6.60157 128.829 6.37036 129.809 6.37036C130.404 6.37036 130.981 6.4688 131.54 6.66566C132.098 6.86253 132.599 7.17157 133.044 7.59278C133.488 8.01399 133.838 8.5611 134.094 9.23412C134.351 9.90255 134.479 10.7152 134.479 11.6721V12.4H126.094V10.8617H132.467C132.467 10.3215 132.357 9.84304 132.137 9.42641C131.917 9.0052 131.608 8.67327 131.21 8.43062C130.816 8.18796 130.354 8.06664 129.823 8.06664C129.246 8.06664 128.742 8.20857 128.312 8.49242C127.886 8.7717 127.556 9.13797 127.323 9.59123C127.094 10.0399 126.979 10.5275 126.979 11.054V12.2558C126.979 12.9609 127.103 13.5607 127.35 14.0551C127.602 14.5496 127.952 14.9273 128.401 15.1883C128.85 15.4446 129.374 15.5728 129.974 15.5728C130.363 15.5728 130.718 15.5179 131.038 15.408C131.359 15.2936 131.636 15.1242 131.869 14.8998C132.103 14.6755 132.281 14.3985 132.405 14.0688L134.348 14.4191C134.193 14.9914 133.913 15.4927 133.51 15.9231C133.112 16.3489 132.611 16.6808 132.007 16.9189C131.407 17.1524 130.722 17.2691 129.953 17.2691Z" fill="#FFFFFD"/>
<path d="M52.4568 35.3994V22.8416H57.0556C57.9467 22.8416 58.6846 22.9888 59.2691 23.2831C59.8537 23.5734 60.2911 23.9678 60.5813 24.4665C60.8715 24.9612 61.0167 25.5192 61.0167 26.1405C61.0167 26.6637 60.9206 27.1052 60.7285 27.465C60.5363 27.8206 60.2788 28.1067 59.9559 28.3234C59.637 28.536 59.2855 28.6913 58.9012 28.7894V28.912C59.3182 28.9325 59.7249 29.0674 60.1214 29.3167C60.522 29.562 60.8531 29.9115 61.1148 30.3653C61.3764 30.819 61.5072 31.3709 61.5072 32.0208C61.5072 32.6626 61.3559 33.239 61.0534 33.75C60.755 34.2568 60.2931 34.6595 59.6677 34.9579C59.0422 35.2522 58.2431 35.3994 57.2702 35.3994H52.4568ZM54.3515 33.7745H57.0862C57.9937 33.7745 58.6437 33.5987 59.0361 33.2472C59.4285 32.8956 59.6248 32.4562 59.6248 31.9288C59.6248 31.5323 59.5246 31.1685 59.3243 30.8374C59.124 30.5063 58.8379 30.2426 58.4659 30.0464C58.098 29.8502 57.6606 29.7521 57.1537 29.7521H54.3515V33.7745ZM54.3515 28.2743H56.89C57.3151 28.2743 57.6974 28.1926 58.0366 28.0291C58.38 27.8656 58.6519 27.6366 58.8522 27.3423C59.0565 27.0439 59.1587 26.6924 59.1587 26.2877C59.1587 25.7685 58.9768 25.3332 58.613 24.9816C58.2492 24.6301 57.6912 24.4543 56.9391 24.4543H54.3515V28.2743ZM63.262 35.3994V25.9811H65.0953V35.3994H63.262ZM64.1879 24.5279C63.869 24.5279 63.5951 24.4216 63.3662 24.209C63.1414 23.9924 63.029 23.7348 63.029 23.4364C63.029 23.1339 63.1414 22.8764 63.3662 22.6638C63.5951 22.4472 63.869 22.3388 64.1879 22.3388C64.5067 22.3388 64.7785 22.4472 65.0034 22.6638C65.2323 22.8764 65.3467 23.1339 65.3467 23.4364C65.3467 23.7348 65.2323 23.9924 65.0034 24.209C64.7785 24.4216 64.5067 24.5279 64.1879 24.5279ZM71.1837 35.5895C70.3007 35.5895 69.5302 35.3871 68.872 34.9824C68.2139 34.5777 67.7029 34.0116 67.3391 33.2839C66.9753 32.5563 66.7934 31.7061 66.7934 30.7332C66.7934 29.7562 66.9753 28.9018 67.3391 28.1701C67.7029 27.4384 68.2139 26.8702 68.872 26.4655C69.5302 26.0608 70.3007 25.8584 71.1837 25.8584C72.0667 25.8584 72.8372 26.0608 73.4954 26.4655C74.1535 26.8702 74.6645 27.4384 75.0283 28.1701C75.3921 28.9018 75.574 29.7562 75.574 30.7332C75.574 31.7061 75.3921 32.5563 75.0283 33.2839C74.6645 34.0116 74.1535 34.5777 73.4954 34.9824C72.8372 35.3871 72.0667 35.5895 71.1837 35.5895ZM71.1898 34.0504C71.7621 34.0504 72.2363 33.8992 72.6124 33.5967C72.9885 33.2942 73.2664 32.8915 73.4463 32.3887C73.6303 31.8859 73.7222 31.332 73.7222 30.727C73.7222 30.1261 73.6303 29.5743 73.4463 29.0715C73.2664 28.5646 72.9885 28.1578 72.6124 27.8512C72.2363 27.5447 71.7621 27.3914 71.1898 27.3914C70.6135 27.3914 70.1352 27.5447 69.755 27.8512C69.3789 28.1578 69.0989 28.5646 68.915 29.0715C68.7351 29.5743 68.6452 30.1261 68.6452 30.727C68.6452 31.332 68.7351 31.8859 68.915 32.3887C69.0989 32.8915 69.3789 33.2942 69.755 33.5967C70.1352 33.8992 70.6135 34.0504 71.1898 34.0504ZM77.2751 35.3994V25.9811H79.0349V27.514H79.1514C79.3476 26.9949 79.6685 26.5902 80.1141 26.2999C80.5597 26.0056 81.0931 25.8584 81.7145 25.8584C82.344 25.8584 82.8713 26.0056 83.2965 26.2999C83.7257 26.5942 84.0425 26.9989 84.2469 27.514H84.345C84.5698 27.0112 84.9275 26.6106 85.418 26.3122C85.9086 26.0097 86.4931 25.8584 87.1717 25.8584C88.0261 25.8584 88.723 26.1262 89.2626 26.6617C89.8063 27.1972 90.0781 28.0045 90.0781 29.0837V35.3994H88.2448V29.2554C88.2448 28.6177 88.071 28.1558 87.7236 27.8696C87.3761 27.5835 86.9612 27.4404 86.4788 27.4404C85.882 27.4404 85.418 27.6244 85.0869 27.9923C84.7558 28.3561 84.5903 28.8241 84.5903 29.3964V35.3994H82.763V29.1389C82.763 28.6279 82.6036 28.2171 82.2847 27.9064C81.9659 27.5958 81.551 27.4404 81.04 27.4404C80.6925 27.4404 80.3716 27.5324 80.0773 27.7164C79.7871 27.8962 79.552 28.1476 79.3722 28.4706C79.1964 28.7935 79.1085 29.1675 79.1085 29.5927V35.3994H77.2751ZM96.2493 35.5895C95.3213 35.5895 94.5222 35.3912 93.8518 34.9947C93.1855 34.5941 92.6704 34.032 92.3066 33.3085C91.9469 32.5808 91.767 31.7285 91.767 30.7515C91.767 29.7868 91.9469 28.9366 92.3066 28.2008C92.6704 27.465 93.1773 26.8906 93.8273 26.4777C94.4813 26.0649 95.2457 25.8584 96.1205 25.8584C96.6519 25.8584 97.167 25.9463 97.6657 26.1221C98.1644 26.2979 98.612 26.5738 99.0086 26.9499C99.4051 27.326 99.7178 27.8145 99.9467 28.4154C100.176 29.0122 100.29 29.7378 100.29 30.5921V31.2421H92.8033V29.8686H98.4935C98.4935 29.3862 98.3954 28.959 98.1992 28.5871C98.003 28.211 97.727 27.9146 97.3714 27.698C97.0198 27.4813 96.607 27.373 96.1328 27.373C95.6177 27.373 95.1681 27.4997 94.7838 27.7531C94.4036 28.0025 94.1093 28.3295 93.9008 28.7342C93.6964 29.1348 93.5943 29.5702 93.5943 30.0403V31.1133C93.5943 31.7428 93.7046 32.2783 93.9254 32.7198C94.1502 33.1613 94.4629 33.4986 94.8635 33.7316C95.2641 33.9605 95.7322 34.0749 96.2677 34.0749C96.6151 34.0749 96.9319 34.0259 97.2181 33.9278C97.5042 33.8256 97.7516 33.6743 97.96 33.474C98.1685 33.2737 98.3279 33.0264 98.4383 32.7321L100.174 33.0448C100.035 33.5558 99.7852 34.0034 99.4255 34.3877C99.0699 34.7678 98.6223 35.0642 98.0827 35.2768C97.5472 35.4852 96.936 35.5895 96.2493 35.5895ZM106.375 25.9811V27.4527H101.231V25.9811H106.375ZM102.611 23.7246H104.444V32.634C104.444 32.9896 104.497 33.2574 104.603 33.4372C104.71 33.613 104.847 33.7336 105.014 33.799C105.186 33.8603 105.372 33.891 105.572 33.891C105.719 33.891 105.848 33.8808 105.958 33.8603C106.069 33.8399 106.155 33.8235 106.216 33.8113L106.547 35.3258C106.441 35.3667 106.29 35.4076 106.093 35.4484C105.897 35.4934 105.652 35.5179 105.358 35.522C104.875 35.5302 104.425 35.4444 104.009 35.2645C103.592 35.0846 103.254 34.8067 102.997 34.4306C102.739 34.0545 102.611 33.5824 102.611 33.0141V23.7246ZM108.058 35.3994V25.9811H109.83V27.4772H109.928C110.1 26.9703 110.402 26.5718 110.836 26.2815C111.273 25.9872 111.768 25.84 112.32 25.84C112.434 25.84 112.569 25.8441 112.724 25.8523C112.884 25.8605 113.008 25.8707 113.098 25.883V27.6366C113.025 27.6162 112.894 27.5937 112.706 27.5692C112.518 27.5406 112.33 27.5263 112.142 27.5263C111.709 27.5263 111.322 27.6182 110.983 27.8022C110.648 27.9821 110.382 28.2335 110.186 28.5564C109.99 28.8752 109.891 29.2391 109.891 29.6478V35.3994H108.058ZM114.34 35.3994V25.9811H116.173V35.3994H114.34ZM115.265 24.5279C114.947 24.5279 114.673 24.4216 114.444 24.209C114.219 23.9924 114.107 23.7348 114.107 23.4364C114.107 23.1339 114.219 22.8764 114.444 22.6638C114.673 22.4472 114.947 22.3388 115.265 22.3388C115.584 22.3388 115.856 22.4472 116.081 22.6638C116.31 22.8764 116.424 23.1339 116.424 23.4364C116.424 23.7348 116.31 23.9924 116.081 24.209C115.856 24.4216 115.584 24.5279 115.265 24.5279ZM122.261 35.5895C121.35 35.5895 120.565 35.383 119.907 34.9702C119.253 34.5532 118.75 33.9789 118.398 33.2472C118.047 32.5154 117.871 31.6774 117.871 30.7332C117.871 29.7766 118.051 28.9325 118.411 28.2008C118.77 27.465 119.277 26.8906 119.931 26.4777C120.585 26.0649 121.356 25.8584 122.243 25.8584C122.958 25.8584 123.596 25.9913 124.156 26.257C124.716 26.5186 125.168 26.8865 125.511 27.3607C125.859 27.8349 126.065 28.3888 126.13 29.0224H124.346C124.248 28.5809 124.023 28.2008 123.672 27.8819C123.324 27.5631 122.858 27.4036 122.274 27.4036C121.763 27.4036 121.315 27.5385 120.931 27.8083C120.551 28.074 120.254 28.4542 120.042 28.9488C119.829 29.4394 119.723 30.0198 119.723 30.6902C119.723 31.377 119.827 31.9697 120.036 32.4684C120.244 32.9671 120.538 33.3534 120.919 33.6273C121.303 33.9012 121.754 34.0381 122.274 34.0381C122.621 34.0381 122.936 33.9748 123.218 33.8481C123.504 33.7173 123.743 33.5313 123.935 33.2901C124.132 33.0489 124.268 32.7587 124.346 32.4194H126.13C126.065 33.0285 125.867 33.5721 125.536 34.0504C125.205 34.5287 124.761 34.9048 124.205 35.1786C123.653 35.4525 123.005 35.5895 122.261 35.5895ZM134.803 28.2805L133.142 28.5748C133.072 28.3622 132.962 28.1599 132.811 27.9678C132.663 27.7756 132.463 27.6182 132.21 27.4956C131.956 27.373 131.639 27.3117 131.259 27.3117C130.74 27.3117 130.307 27.4282 129.959 27.6612C129.612 27.8901 129.438 28.1864 129.438 28.5503C129.438 28.865 129.555 29.1185 129.788 29.3106C130.021 29.5027 130.397 29.6601 130.916 29.7827L132.412 30.1261C133.279 30.3264 133.924 30.635 134.35 31.052C134.775 31.469 134.987 32.0106 134.987 32.6769C134.987 33.241 134.824 33.7438 134.497 34.1853C134.174 34.6227 133.722 34.9661 133.142 35.2154C132.565 35.4648 131.897 35.5895 131.137 35.5895C130.082 35.5895 129.221 35.3646 128.555 34.915C127.889 34.4612 127.48 33.8174 127.329 32.9835L129.101 32.7137C129.211 33.1756 129.438 33.5251 129.781 33.7622C130.125 33.9952 130.572 34.1117 131.124 34.1117C131.725 34.1117 132.206 33.987 132.565 33.7377C132.925 33.4842 133.105 33.1756 133.105 32.8118C133.105 32.5175 132.994 32.2702 132.774 32.0699C132.557 31.8696 132.224 31.7183 131.774 31.6161L130.18 31.2666C129.301 31.0663 128.651 30.7475 128.23 30.3101C127.813 29.8727 127.605 29.3188 127.605 28.6484C127.605 28.0924 127.76 27.606 128.071 27.189C128.381 26.7721 128.811 26.4471 129.358 26.2141C129.906 25.977 130.534 25.8584 131.241 25.8584C132.259 25.8584 133.06 26.0792 133.644 26.5207C134.229 26.9581 134.615 27.5447 134.803 28.2805Z" fill="#FFFFFD"/>
<defs>
<linearGradient id="paint0_linear_301_286" x1="-0.00103581" y1="19.5395" x2="43.6356" y2="19.5395" gradientUnits="userSpaceOnUse">
<stop stop-color="#C3CFCF"/>
<stop offset="0.17" stop-color="#DCE3E3"/>
<stop offset="0.2" stop-color="#E5EAEA"/>
<stop offset="0.25" stop-color="#F1F4F4"/>
<stop offset="0.33" stop-color="#F8F9F9"/>
<stop offset="0.53" stop-color="#FAFBFB"/>
<stop offset="0.67" stop-color="#F7F8F8"/>
<stop offset="0.76" stop-color="#EEF1F1"/>
<stop offset="0.84" stop-color="#DFE5E5"/>
<stop offset="0.85" stop-color="#DCE3E3"/>
<stop offset="1" stop-color="#C1CDCD"/>
</linearGradient>
<radialGradient id="paint1_radial_301_286" cx="0" cy="0" r="1" gradientUnits="userSpaceOnUse" gradientTransform="translate(21.8173 19.5395) scale(17.4493 17.4493)">
<stop stop-color="#3B3648"/>
<stop offset="0.99" stop-color="#100B21"/>
</radialGradient>
<radialGradient id="paint2_radial_301_286" cx="0" cy="0" r="1" gradientUnits="userSpaceOnUse" gradientTransform="translate(21.8179 19.5397) scale(11.1495)">
<stop stop-color="#04CBFF"/>
<stop offset="0.27" stop-color="#03C8FC"/>
<stop offset="0.42" stop-color="#03C0F5"/>
<stop offset="0.53" stop-color="#03B2E9"/>
<stop offset="0.63" stop-color="#039FD7"/>
<stop offset="0.73" stop-color="#0286C1"/>
<stop offset="0.81" stop-color="#0267A5"/>
<stop offset="0.89" stop-color="#014283"/>
<stop offset="0.96" stop-color="#00185E"/>
<stop offset="1" stop-color="#000048"/>
</radialGradient>
<radialGradient id="paint3_radial_301_286" cx="0" cy="0" r="1" gradientUnits="userSpaceOnUse" gradientTransform="translate(21.8175 19.5395) scale(4.86727)">
<stop stop-color="#3B3648"/>
<stop offset="0.99" stop-color="#100B21"/>
</radialGradient>
<radialGradient id="paint4_radial_301_286" cx="0" cy="0" r="1" gradientUnits="userSpaceOnUse" gradientTransform="translate(21.8173 2.16277) scale(0.741641)">
<stop stop-color="white"/>
<stop offset="0.18" stop-color="#D7D7D7"/>
<stop offset="0.58" stop-color="#717171"/>
<stop offset="1"/>
</radialGradient>
<radialGradient id="paint5_radial_301_286" cx="0" cy="0" r="1" gradientUnits="userSpaceOnUse" gradientTransform="translate(-1.09379 37.138) scale(0.741641)">
<stop stop-color="white"/>
<stop offset="0.18" stop-color="#D7D7D7"/>
<stop offset="0.58" stop-color="#717171"/>
<stop offset="1"/>
</radialGradient>
<radialGradient id="paint6_radial_301_286" cx="0" cy="0" r="1" gradientUnits="userSpaceOnUse" gradientTransform="translate(15.1349 3.49399) rotate(-22.5) scale(0.741641)">
<stop stop-color="white"/>
<stop offset="0.18" stop-color="#D7D7D7"/>
<stop offset="0.58" stop-color="#717171"/>
<stop offset="1"/>
</radialGradient>
<radialGradient id="paint7_radial_301_286" cx="0" cy="0" r="1" gradientUnits="userSpaceOnUse" gradientTransform="translate(28.5176 35.8053) rotate(-22.5) scale(0.741641)">
<stop stop-color="white"/>
<stop offset="0.18" stop-color="#D7D7D7"/>
<stop offset="0.58" stop-color="#717171"/>
<stop offset="1"/>
</radialGradient>
<radialGradient id="paint8_radial_301_286" cx="0" cy="0" r="1" gradientUnits="userSpaceOnUse" gradientTransform="translate(9.47321 7.2806) rotate(-45) scale(0.741641)">
<stop stop-color="white"/>
<stop offset="0.18" stop-color="#D7D7D7"/>
<stop offset="0.58" stop-color="#717171"/>
<stop offset="1"/>
</radialGradient>
<radialGradient id="paint9_radial_301_286" cx="0" cy="0" r="1" gradientUnits="userSpaceOnUse" gradientTransform="translate(34.2051 32.0125) rotate(-45) scale(0.74164)">
<stop stop-color="white"/>
<stop offset="0.18" stop-color="#D7D7D7"/>
<stop offset="0.58" stop-color="#717171"/>
<stop offset="1"/>
</radialGradient>
<radialGradient id="paint10_radial_301_286" cx="0" cy="0" r="1" gradientUnits="userSpaceOnUse" gradientTransform="translate(5.68617 12.9427) rotate(-67.5) scale(0.74164)">
<stop stop-color="white"/>
<stop offset="0.18" stop-color="#D7D7D7"/>
<stop offset="0.58" stop-color="#717171"/>
<stop offset="1"/>
</radialGradient>
<radialGradient id="paint11_radial_301_286" cx="0" cy="0" r="1" gradientTransform="matrix(0.283813 -0.685187 0.685185 0.283814 37.998 26.3268)" gradientUnits="userSpaceOnUse">
<stop stop-color="white"/>
<stop offset="0.18" stop-color="#D7D7D7"/>
<stop offset="0.58" stop-color="#717171"/>
<stop offset="1"/>
</radialGradient>
<radialGradient id="paint12_radial_301_286" cx="0" cy="0" r="1" gradientUnits="userSpaceOnUse" gradientTransform="translate(4.35674 19.6255) rotate(-90) scale(0.74164)">
<stop stop-color="white"/>
<stop offset="0.18" stop-color="#D7D7D7"/>
<stop offset="0.58" stop-color="#717171"/>
<stop offset="1"/>
</radialGradient>
<radialGradient id="paint13_radial_301_286" cx="0" cy="0" r="1" gradientUnits="userSpaceOnUse" gradientTransform="translate(39.3316 19.6255) rotate(-90) scale(0.74164)">
<stop stop-color="white"/>
<stop offset="0.18" stop-color="#D7D7D7"/>
<stop offset="0.58" stop-color="#717171"/>
<stop offset="1"/>
</radialGradient>
<radialGradient id="paint14_radial_301_286" cx="0" cy="0" r="1" gradientUnits="userSpaceOnUse" gradientTransform="translate(5.68305 26.3078) rotate(-112.5) scale(0.741641)">
<stop stop-color="white"/>
<stop offset="0.18" stop-color="#D7D7D7"/>
<stop offset="0.58" stop-color="#717171"/>
<stop offset="1"/>
</radialGradient>
<radialGradient id="paint15_radial_301_286" cx="0" cy="0" r="1" gradientTransform="matrix(-0.283813 -0.685186 0.685185 -0.283813 37.9943 12.9252)" gradientUnits="userSpaceOnUse">
<stop stop-color="white"/>
<stop offset="0.18" stop-color="#D7D7D7"/>
<stop offset="0.58" stop-color="#717171"/>
<stop offset="1"/>
</radialGradient>
<radialGradient id="paint16_radial_301_286" cx="0" cy="0" r="1" gradientUnits="userSpaceOnUse" gradientTransform="translate(9.46706 31.9763) rotate(-135) scale(0.74164)">
<stop stop-color="white"/>
<stop offset="0.18" stop-color="#D7D7D7"/>
<stop offset="0.58" stop-color="#717171"/>
<stop offset="1"/>
</radialGradient>
<radialGradient id="paint17_radial_301_286" cx="0" cy="0" r="1" gradientUnits="userSpaceOnUse" gradientTransform="translate(34.199 7.24437) rotate(-135) scale(0.74164)">
<stop stop-color="white"/>
<stop offset="0.18" stop-color="#D7D7D7"/>
<stop offset="0.58" stop-color="#717171"/>
<stop offset="1"/>
</radialGradient>
<radialGradient id="paint18_radial_301_286" cx="0" cy="0" r="1" gradientUnits="userSpaceOnUse" gradientTransform="translate(15.1309 35.7668) rotate(-157.5) scale(0.741641)">
<stop stop-color="white"/>
<stop offset="0.18" stop-color="#D7D7D7"/>
<stop offset="0.58" stop-color="#717171"/>
<stop offset="1"/>
</radialGradient>
<radialGradient id="paint19_radial_301_286" cx="0" cy="0" r="1" gradientUnits="userSpaceOnUse" gradientTransform="translate(28.5148 3.45489) rotate(-157.5) scale(0.741641)">
<stop stop-color="white"/>
<stop offset="0.18" stop-color="#D7D7D7"/>
<stop offset="0.58" stop-color="#717171"/>
<stop offset="1"/>
</radialGradient>
<radialGradient id="paint20_radial_301_286" cx="0" cy="0" r="1" gradientUnits="userSpaceOnUse" gradientTransform="translate(21.817 19.6255) scale(3.98891 3.98891)">
<stop stop-color="#A9F5FF"/>
<stop offset="0.21" stop-color="#81BCC3"/>
<stop offset="0.6" stop-color="#3C575B"/>
<stop offset="0.87" stop-color="#101819"/>
<stop offset="1"/>
</radialGradient>
<radialGradient id="paint21_radial_301_286" cx="0" cy="0" r="1" gradientUnits="userSpaceOnUse" gradientTransform="translate(21.817 19.6255) scale(3.98891 3.98891)">
<stop offset="0.33" stop-color="#C1F5F5"/>
<stop offset="0.34" stop-color="#9DC7C7"/>
<stop offset="0.35" stop-color="#7B9C9C"/>
<stop offset="0.36" stop-color="#5D7777"/>
<stop offset="0.37" stop-color="#445656"/>
<stop offset="0.39" stop-color="#2E3B3B"/>
<stop offset="0.4" stop-color="#1D2525"/>
<stop offset="0.42" stop-color="#101414"/>
<stop offset="0.44" stop-color="#060808"/>
<stop offset="0.48" stop-color="#010101"/>
<stop offset="0.57"/>
</radialGradient>
<radialGradient id="paint22_radial_301_286" cx="0" cy="0" r="1" gradientUnits="userSpaceOnUse" gradientTransform="translate(21.817 19.6255) scale(3.98891 3.98891)">
<stop stop-color="#A9F5FF"/>
<stop offset="0.21" stop-color="#81BCC3"/>
<stop offset="0.6" stop-color="#3C575B"/>
<stop offset="0.87" stop-color="#101819"/>
<stop offset="1"/>
</radialGradient>
<radialGradient id="paint23_radial_301_286" cx="0" cy="0" r="1" gradientUnits="userSpaceOnUse" gradientTransform="translate(21.817 19.6255) scale(3.98891 3.98891)">
<stop offset="0.33" stop-color="#C1F5F5"/>
<stop offset="0.34" stop-color="#9DC7C7"/>
<stop offset="0.35" stop-color="#7B9C9C"/>
<stop offset="0.36" stop-color="#5D7777"/>
<stop offset="0.37" stop-color="#445656"/>
<stop offset="0.39" stop-color="#2E3B3B"/>
<stop offset="0.4" stop-color="#1D2525"/>
<stop offset="0.42" stop-color="#101414"/>
<stop offset="0.44" stop-color="#060808"/>
<stop offset="0.48" stop-color="#010101"/>
<stop offset="0.57"/>
</radialGradient>
</defs>
</svg>
